<?xml version="1.0" standalone="no"?>
<!DOCTYPE svg PUBLIC "-//W3C//DTD SVG 20010904//EN"
 "http://www.w3.org/TR/2001/REC-SVG-20010904/DTD/svg10.dtd">
<svg version="1.0" xmlns="http://www.w3.org/2000/svg"
 width="420.000000pt" height="420.000000pt" viewBox="0 0 420.000000 420.000000"
 preserveAspectRatio="xMidYMid meet">
<metadata>
Created by potrace 1.14, written by Peter Selinger 2001-2017
</metadata>
<g transform="translate(0.000000,420.000000) scale(0.100000,-0.100000)"
fill="#000000" stroke="none">
<path d="M0 2100 l0 -2100 2100 0 2100 0 0 2100 0 2100 -2100 0 -2100 0 0
-2100z m2105 1670 c714 -59 1281 -628 1331 -1336 5 -76 13 -103 49 -184 23
-52 75 -170 114 -262 l71 -167 0 -135 0 -135 -112 -3 -113 -3 -3 -246 -2 -245
-358 -22 c-196 -13 -363 -22 -369 -22 -10 0 -13 -65 -13 -290 l0 -290 -82 0
c-126 0 -125 0 -133 78 -4 37 -11 84 -15 105 -4 21 -4 37 1 37 5 0 9 122 9
279 l0 280 53 5 c28 3 169 13 312 21 143 8 286 18 317 21 l58 6 2 251 3 252
113 3 c85 2 113 6 109 15 -2 7 -55 129 -116 273 l-111 260 0 88 c0 210 -91
466 -235 657 -180 241 -447 414 -729 473 l-63 13 -5 -148 c-5 -142 -6 -151
-37 -213 -35 -72 -110 -147 -167 -168 l-34 -12 0 -71 c0 -40 3 -160 7 -268 l6
-197 199 0 198 0 0 -343 0 -342 -255 -255 -255 -255 -260 260 -260 260 0 337
0 338 203 2 202 3 3 267 2 266 -34 12 c-52 17 -119 81 -157 152 -32 60 -34 69
-37 181 -2 64 -8 117 -13 117 -5 0 -44 -18 -87 -39 -355 -180 -603 -539 -644
-931 -17 -166 3 -352 53 -505 84 -252 278 -499 502 -634 l37 -23 -2 -276 -3
-276 -44 -13 c-25 -7 -73 -16 -108 -19 l-63 -7 0 235 0 236 -57 43 c-195 146
-377 399 -462 642 -55 157 -74 274 -75 447 0 160 10 247 46 385 127 487 523
876 1019 999 170 42 301 52 494 36z"/>
<path d="M1730 3370 c0 -96 14 -130 66 -155 49 -23 98 -13 141 30 32 32 33 35
33 119 l0 86 -120 0 -120 0 0 -80z"/>
<path d="M1560 2063 l0 -188 142 -142 143 -143 147 147 148 148 0 182 0 183
-90 0 -90 0 0 -145 0 -145 -110 0 -110 0 0 145 0 145 -90 0 -90 0 0 -187z"/>
</g>
</svg>
