<svg xmlns="http://www.w3.org/2000/svg" width="307" height="521" fill="none"><mask id="a" width="227" height="226" x="23" y="42" maskUnits="userSpaceOnUse" style="mask-type:alpha"><path fill="#000" fill-rule="evenodd" d="m214.136 67.097 5.276-5.276 10.552 10.552-5.276 5.276a7.462 7.462 0 0 1-10.552-10.552Zm-4.086 24.436c7.954 3.887 17.826 2.525 24.437-4.085l15.075-15.075-30.15-30.15-15.075 15.075c-6.611 6.61-7.972 16.482-4.086 24.436l-23.426 23.426-17.713-17.712-30.15 30.149v45.225h45.225l30.15-30.15-17.713-17.713 23.426-23.426Zm-43.024 23.426-12.813 12.813 9.799 9.799 12.813-12.813 7.915 7.914-16.293 16.293H142.82v-25.628l16.292-16.292 7.914 7.914Zm-65.7 38.718c0 19.722 15.988 35.71 35.71 35.71v13.857c-27.376 0-49.567-22.192-49.567-49.567h13.857Zm35.71 67.688c-37.383 0-67.688-30.305-67.688-67.688H55.491c0 45.037 36.509 81.546 81.545 81.546v-13.858Zm0 31.979c-55.044 0-99.667-44.622-99.667-99.667H23.512c0 62.698 50.826 113.525 113.524 113.524v-13.857Z" clip-rule="evenodd"/></mask><g mask="url(#a)"><circle cx="-56.19" cy="-4.072" r="83.878" fill="#CAD5D3"/><circle cx="64.157" cy="32.362" r="93.049" fill="#5B81FB"/><circle cx="304.78" cy="167.969" r="93.049" fill="#5B81FB"/><circle cx="201.818" cy="42.559" r="110.894" fill="#D55C6C"/><circle cx="-17.774" cy="208.616" r="110.894" fill="#D55C6C"/><circle cx="173.776" cy="164.924" r="93.049" fill="#5BA7B8"/><circle cx="92.199" cy="254.149" r="65.007" fill="#148F37"/><circle cx="92.199" cy="254.149" r="65.007" fill="#148F37"/><circle cx="38.664" cy="152.178" r="77.753" fill="#DAAD1A"/><circle cx="214.564" cy="253.653" r="77.753" fill="#DAAD1A"/><circle cx="103.671" cy="125.41" r="63.732" fill="#CAD5D3"/></g><mask id="b" width="227" height="226" x="57" y="253" maskUnits="userSpaceOnUse" style="mask-type:alpha"><path fill="#000" fill-rule="evenodd" d="m92.578 453.616-5.277 5.277L76.75 448.34l5.276-5.276a7.462 7.462 0 0 1 10.553 10.552Zm4.085-24.436c-7.954-3.887-17.826-2.525-24.436 4.085L57.151 448.34l30.15 30.15 15.074-15.075c6.611-6.61 7.973-16.482 4.086-24.436l23.426-23.426 17.713 17.713 30.15-30.15v-45.225h-45.225l-30.15 30.15 17.713 17.713-23.426 23.426Zm43.024-23.426 12.813-12.813-9.799-9.799-12.813 12.813-7.914-7.914 16.292-16.292h25.627v25.627l-16.292 16.292-7.914-7.914Zm65.7-38.718c0-19.722-15.987-35.71-35.709-35.71v-13.857c27.375 0 49.567 22.192 49.567 49.567h-13.858Zm-35.71-67.688c37.383 0 67.688 30.305 67.688 67.688h13.858c0-45.036-36.51-81.546-81.546-81.546v13.858Zm0-31.979c55.045 0 99.667 44.622 99.667 99.667h13.857c0-62.698-50.826-113.524-113.524-113.524v13.857Z" clip-rule="evenodd"/></mask><g mask="url(#b)"><circle cx="243.204" cy="326.908" r="83.878" fill="#CAD5D3" transform="rotate(-180 243.204 326.908)"/><circle cx="134.683" cy="415.035" r="93.049" fill="#5B81FB" transform="rotate(-180 134.683 415.035)"/><circle cx="-21.319" cy="420.7" r="110.894" fill="#D55C6C" transform="rotate(-180 -21.319 420.7)"/><circle cx="216.614" cy="238.781" r="110.894" fill="#D55C6C" transform="rotate(-180 216.614 238.781)"/><circle cx="25.064" cy="282.473" r="93.049" fill="#5BA7B8" transform="rotate(-180 25.064 282.473)"/><circle cx="106.641" cy="193.248" r="65.007" fill="#148F37" transform="rotate(-180 106.641 193.248)"/><circle cx="106.641" cy="193.248" r="65.007" fill="#148F37" transform="rotate(-180 106.641 193.248)"/><circle cx="281.337" cy="492.08" r="65.007" fill="#148F37" transform="rotate(-180 281.337 492.08)"/><circle cx="145.872" cy="254.006" r="77.753" fill="#DAAD1A" transform="rotate(-180 145.872 254.006)"/><circle cx="-15.724" cy="193.744" r="77.753" fill="#DAAD1A" transform="rotate(-180 -15.724 193.744)"/><circle cx="102.534" cy="327.935" r="63.732" fill="#CAD5D3" transform="rotate(-180 102.534 327.935)"/></g></svg>