<svg xmlns="http://www.w3.org/2000/svg" width="45" height="48" fill="none"><mask id="a" width="45" height="48" x="0" y="0" maskUnits="userSpaceOnUse" style="mask-type:alpha"><path fill="#000" fill-rule="evenodd" d="M20.187 0C9.038 0 0 9.038 0 20.187c0 6.84 3.391 12.845 8.537 16.488V48h22.39v-8.269l10.67-.68v-7.057H44.8v-4.052l-3.204-7.476C41.417 9.133 32.175 0 20.799 0h-.612Zm-6.356 4.41C7.588 6.927 3.182 13.043 3.182 20.187c0 6.027 3.122 11.285 7.808 14.306l.73.47v9.855h16.024v-8.073l10.671-.68v-7.254h3.201v-.216l-3.2-7.47V20.8c0-8.768-6.406-16.04-14.792-17.391v3.08a4.898 4.898 0 0 1-3.305 4.631v7.608h5.753v9.793l-7.345 7.344-7.344-7.344v-9.793h5.753V11.12a4.898 4.898 0 0 1-3.305-4.632V4.41Zm3.183 2.077V4.774h3.427v1.713a1.714 1.714 0 1 1-3.427 0Zm.122 19.584V21.91h-2.57V27.2l4.161 4.162L22.89 27.2V21.91h-2.57v4.162h-3.183Z" clip-rule="evenodd"/></mask><g mask="url(#a)"><circle cx="12.242" cy="10.094" r="15.677" fill="#5B81FB"/><circle cx="35.435" cy="11.812" r="18.684" fill="#D55C6C"/><circle cx="30.711" cy="32.429" r="15.677" fill="#5BA7B8"/><circle cx="16.966" cy="47.462" r="10.953" fill="#148F37"/><circle cx="7.946" cy="30.281" r="13.1" fill="#DAAD1A"/><circle cx="18.899" cy="25.771" r="10.738" fill="#CAD5D3"/></g></svg>